<?xml version="1.0" encoding="UTF-8" standalone="no"?>
<!-- Created with Inkscape (http://www.inkscape.org/) -->

<svg
   width="201.75745mm"
   height="275.50134mm"
   viewBox="0 0 201.75745 275.50134"
   version="1.1"
   id="svg491"
   xmlns:inkscape="http://www.inkscape.org/namespaces/inkscape"
   xmlns:sodipodi="http://sodipodi.sourceforge.net/DTD/sodipodi-0.dtd"
   xmlns="http://www.w3.org/2000/svg"
   xmlns:svg="http://www.w3.org/2000/svg">
  <sodipodi:namedview
     id="namedview493"
     pagecolor="#ffffff"
     bordercolor="#000000"
     borderopacity="0.25"
     inkscape:showpageshadow="2"
     inkscape:pageopacity="0.0"
     inkscape:pagecheckerboard="0"
     inkscape:deskcolor="#d1d1d1"
     inkscape:document-units="mm"
     showgrid="false" />
  <defs
     id="defs488" />
  <g
     inkscape:label="Layer 1"
     inkscape:groupmode="layer"
     id="layer1"
     transform="translate(-8.1465895,-15.95477)">
    <rect
       style="fill:#efe8e8;fill-opacity:1;stroke:#ffffff;stroke-width:1.05833;stroke-linecap:round"
       id="rect701"
       width="200.69911"
       height="274.44302"
       x="8.6757545"
       y="16.483934"
       inkscape:export-filename="base.svg"
       inkscape:export-xdpi="96"
       inkscape:export-ydpi="96" />
    <path
       style="fill:#030303;fill-opacity:1;stroke-width:0.264583"
       d="m 93.338793,96.767978 -2.02434,20.821822 10.700087,11.85686 12.43525,-5.78384 -10.12171,-25.738072 z"
       id="path1809" />
    <g
       id="g1513">
      <g
         id="g471"
         transform="translate(8.3865671,-36.148977)">
        <path
           style="display:inline;fill:#030403;fill-opacity:1;stroke:none;stroke-width:0.865;stroke-linecap:round;stroke-linejoin:round;stroke-dasharray:none;stroke-dashoffset:0;stroke-opacity:1;paint-order:normal"
           d="m 40.637973,72.645398 6.92969,1.91164 3.82327,3.4051 4.06223,4.4804 14.09833,17.682652 8.36342,2.38954 12.18669,-5.018042 12.186677,2.867462 4.54014,2.15058 8.84132,-5.256992 8.12446,-11.46983 5.01805,-3.58432 3.58432,-6.92969 h 1.91164 l 0.23896,-0.95582 9.31923,-3.82327 -7.88551,9.79714 -21.26697,41.578112 -20.311147,15.53206 -12.66459,-1.67268 -13.85937,-10.27506 c -2.47663,-8.76167 -5.13911,-17.52334 -13.14251,-26.285012 -4.94188,-4.43277 -7.41315,-9.68909 -8.12446,-15.53205 l -0.71686,-6.45178 z"
           id="path32802"
           sodipodi:nodetypes="ccccccccccccccccccccccccc" />
        <path
           style="display:inline;fill:#030403;fill-opacity:1;stroke:none;stroke-width:0.924228;stroke-linecap:round;stroke-linejoin:round;stroke-dasharray:none;stroke-dashoffset:0;stroke-opacity:1;paint-order:normal"
           d="m 72.412158,157.32641 -2.46347,3.08196 0.64828,3.08195 -8.81663,9.24588 -7.26076,10.78687 -4.66763,1.38687 -2.72278,-0.15409 -3.76004,7.859 2.59313,6.62621 5.96419,-6.62621 4.05361,-5.10705 4.11474,-4.75523 0.77794,-3.54425 12.57667,-7.5508 2.46347,-4.31475 -1.29656,-10.17047 z"
           id="path53408"
           sodipodi:nodetypes="ccccccccccccccccc" />
        <path
           style="display:inline;fill:#030403;fill-opacity:1;stroke:none;stroke-width:0.865;stroke-linecap:round;stroke-linejoin:round;stroke-dasharray:none;stroke-dashoffset:0;stroke-opacity:1;paint-order:normal"
           d="m 112.29308,171.19522 c 0.66146,0 7.01146,5.95313 7.01146,5.95313 l 8.46667,8.86354 2.64583,1.19063 5.29167,1.5875 0.26458,2.51354 -3.43958,5.15937 -6.87917,-3.175 -2.85148,1.31471 -3.39083,-10.58437 -14.03217,-10.40794 z"
           id="path53671"
           sodipodi:nodetypes="cccccccccccc" />
        <path
           style="display:inline;fill:#ffffff;fill-opacity:1;stroke:none;stroke-width:0.865;stroke-linecap:round;stroke-linejoin:round;stroke-dasharray:none;stroke-dashoffset:0;stroke-opacity:1;paint-order:normal"
           d="m 78.426418,183.10147 -7.9375,3.04271 -7.9375,0.13229 -8.59896,4.36563 -1.98437,7.9375 7.27604,4.10104 6.61458,3.70416 6.08542,0.39688 12.43542,0.92604 11.90624,-2.51354 2.38125,1.45521 5.556252,-2.64583 8.06979,3.70416 10.31876,-7.14375 14.15521,-4.7625 -4.63021,-8.33437 -7.9375,-2.11667 h -9.78958 l -6.21771,-1.05833 -5.29166,-3.70417 -7.276052,2.64584 -5.15938,0.39687 -2.11666,-2.51354 -5.15938,2.24896 -1.85208,-1.45521 0.13229,3.04271 z"
           id="path50431"
           sodipodi:nodetypes="ccccccccccccccccccccccccccc" />
        <path
           style="display:inline;fill:#ffffff;fill-opacity:1;stroke:none;stroke-width:0.865;stroke-linecap:round;stroke-linejoin:round;stroke-dasharray:none;stroke-dashoffset:0;stroke-opacity:1;paint-order:normal"
           d="m 86.676658,138.53248 -3.175,0.26458 v -1.32291 l -2.38125,2.24896 -3.43959,1.19062 -5.02708,6.08542 -3.70417,9.39271 -0.52916,5.68854 3.175,-1.05834 0.92604,1.5875 h 2.51354 l 1.98437,3.43959 1.85209,0.13229 0.66146,8.59896 -2.77813,5.95312 1.05833,5.42396 4.7625,1.71979 10.84794,0.26458 9.789582,-3.30729 2.91041,-3.57187 v -4.89479 l 3.43959,0.66145 1.85208,-4.23333 2.38124,-1.85208 1.58751,-4.49792 -1.7198,-0.13229 -2.24895,-2.91042 -0.26458,2.38125 -0.92604,-1.32291 -1.32293,-4.36563 0.66147,-2.24896 -3.04271,-12.30312 -5.02708,-8.59896 -4.365632,1.5875 -2.38125,3.04271 -2.64584,3.175 2.91043,1.5875 -1.05834,3.83646 -0.52916,-2.24896 -2.91044,-0.92604 -1.98437,-4.10104 z"
           id="path50369" />
      </g>
    </g>
  </g>
</svg>
